<svg xmlns="http://www.w3.org/2000/svg" version="1.1" xmlns:xlink="http://www.w3.org/1999/xlink" xmlns:svgjs="http://svgjs.com/svgjs" width="512" height="512"><svg id="SvgjsSvg1001" data-name="Layer 1" xmlns="http://www.w3.org/2000/svg" version="1.1" xmlns:xlink="http://www.w3.org/1999/xlink" viewBox="0 0 512 512">
  <defs>
    <style>
      .cls-1 {
        fill: url(#White_Black);
      }

      .cls-1, .cls-2, .cls-3, .cls-4, .cls-5, .cls-6, .cls-7 {
        stroke: #000;
        stroke-miterlimit: 10;
        stroke-width: 1.75px;
      }

      .cls-2 {
        fill: #fcee21;
      }

      .cls-3 {
        fill: #fff;
      }

      .cls-4 {
        fill: #000;
      }

      .cls-5 {
        fill: #ff0;
      }

      .cls-6 {
        fill: red;
      }

      .cls-7 {
        fill: none;
      }
    </style>
    <linearGradient id="SvgjsLinearGradient1000" data-name="White, Black" x1="37.38" y1="212.79" x2="470.14" y2="212.79" gradientUnits="userSpaceOnUse">
      <stop offset="0" stop-color="#fff"></stop>
      <stop offset="1" stop-color="#000"></stop>
    </linearGradient>
  </defs>
  <g>
    <path class="cls-3" d="M90.89,441.84c11.96,5.96,23.44,13.12,35.98,17.64,31.99,11.52,64.47,21.86,96.75,32.67,6.97,3.72,14.77,6.54,20.68,11.4,6.89,5.66,11.62,4.94,18.27-.03,7.38-5.52,15.28-11.18,23.97-14.27,23.98-8.54,48.61-15.47,72.77-23.6,31.94-10.74,62.98-23.12,86.2-47.83,17.82-16.87,24.51-38.02,24.56-60.91.22-112.88-.02-225.77-.16-338.65,0-3.6-.73-7.2-1.08-10.48H37.61c0,5.32,0,9.95,0,14.57-.07,60.49-.18,120.97-.2,181.46-.01,54.29-.21,108.58.49,162.86.09,7.06,5.06,14.06,7.77,21.09,5.45,25.13,26.29,38.9,45.22,54.08Z"></path>
    <path class="cls-2" d="M445.5,417.81c-23.22,24.71-54.26,37.09-86.2,47.83-24.16,8.13-48.78,15.06-72.77,23.6-8.68,3.09-16.58,8.75-23.97,14.27-6.65,4.97-11.38,5.69-18.27.03-5.91-4.85-13.71-7.68-20.68-11.4-6.07-3.53-11.72-8.08-18.27-10.41-30.66-10.9-61.58-21.15-92.37-31.72-7.43-2.55-14.73-5.45-22.09-8.18-18.93-15.18-39.77-28.95-45.22-54.08-1.61-14.14-4.6-28.28-4.62-42.42-.16-106.75.24-213.49.52-320.24.01-4.57.46-9.13.71-13.63h423.14c.28,2.95.69,5.23.69,7.5.07,113.42.67,226.85-.5,340.26-.16,15.34-9.1,30.64-14.24,45.88-1.48,4.37-3.88,8.47-5.86,12.69ZM393.38,365.65c7.85,4.33,15.7,8.66,26.13,14.43v-225.98c1.28,0,2.56.01,3.83.02,0,5.01,0,10.02,0,15.03,0,65.29.92,130.59-.56,195.85-.44,19.43,8.15,29.46,25.61,37.85.38-4.34.89-7.5.89-10.67.04-98.65.36-197.29-.36-295.94-.1-13.25-5.43-26.46-8.57-40.75,3.19-4.85,7.89-11.99,12.9-19.6-15.21,0-27.47.58-39.63-.2-8.51-.55-16.82-3.39-25.33-4.47-18.01-2.27-32.34,4-40.2,19.35-2.37,4.63-1.59,13.22,1.6,17.39,12.45,16.22,29.5,16.76,51.79,3.21,9.79,13.5,9.33,25.38-3.61,39.99-25.87,29.21-61.48,35.62-98.46,37.11-4.87-34.64-9.55-68.02-14.33-102.01,3.11-2.4,7.17-5.54,12.3-9.51-9.61-2.1-17.59-3.28-25.15-5.64-8.12-2.54-15.58-7.49-23.82-9.05-5.59-1.05-31.36-3.73-38.5-3.62-9.95.17-15.79,7.33-14.12,16.74,1.32,7.47,5.3,14.52,8.2,21.99,18.44-8.48,21.97-7.5,30.59,8.39-15.04-3.54-28.51-6.72-42.32-9.97,9.5,17.76,26.06,21.93,48.06,20.91-12.62,25.18-24.04,47.97-35.91,71.66-23.69-.36-48.47-3.93-69.73-16.76-12.33-7.44-23.19-18.23-31.87-29.46-7.16-9.26-7.17-21.11,1.82-31.19,21.32,13.84,38.16,12.86,51.99-1.84,6.38-6.78,6.73-12.6,1.14-20.16-12.31-16.66-26.37-20.58-53.77-15.55-15.32,2.82-31.03,3.79-48.9,5.86,3.29,4.92,7.93,11.85,10.15,15.15-3.03,17.84-7.84,33.4-7.96,48.99-.71,94.35-.37,188.71-.33,283.07,0,5.04.46,10.08.79,16.81,16.81-9.08,26.69-17.79,26.26-37.08-1.49-65.73-.57-131.52-.57-197.28,0-4.81,0-9.62,0-14.44,1.58.04,3.17.08,4.75.12v226.12c6.75-4.29,10.74-6.83,15.5-9.86v11.49c12.4,1.76,23.58,3.34,34.75,4.92-6.7,6.75-13.44,9.85-20.26,12.78-19.86,8.55-20.7,19.64-5.36,30.11,11.23-10.68,22.07-21,35.06-33.36,2.49,20.2-12.31,42.37,17.76,49.06v-50.02c9.83,5.8,19.29,11.39,31.17,18.39,1.32-4.37,6.73-16.72,5.04-17.64-10.39-5.71-22.38-8.83-34.67-13.11,9.11-7.91,18.81-16.33,29.91-25.96.82,8.02,1.37,13.44,2.21,21.7,9.51-13.07,17.38-23.88,25.26-34.68,2.7,12.34,2.44,23.23,1.58,34.08-3.05,38.29-13.6,50.92-54.06,62.66,6.91,5.8,12.08,13.74,18.55,14.82,13.08,2.19,26.86.65,40.35.65.13-1.32.25-2.64.38-3.96,7.12,7.68,14.24,15.36,21.9,23.63,8.67-9.2,15.96-16.93,22.94-24.34,32.4,12.14,47.51,8.41,55.76-13.71-16.18-.18-30.5-4.52-38.76-18.39-14.22-23.9-14.4-49.96-11.29-76.65,8.17,11.71,16.34,23.41,26.37,37.8.72-9.39,1.16-15.21,1.76-23.16,11.22,9.81,20.72,18.12,31.85,27.86-14.8,1.93-25.71,3.35-39.99,5.22,3.16,9.64,5.74,17.5,7.34,22.39,12.28-6.69,21.6-11.76,32.03-17.44v49.57c31.27-6.13,13.21-29.62,17.95-47.81,12.89,11.69,24.02,21.77,35.16,31.87,14.56-14.07,13.41-20.88-6.44-29.54-6.88-3-13.45-6.63-20.16-9.97.32-1.21.63-2.42.95-3.62,11.17-.84,22.34-1.68,36.18-2.72-3.24-5.36-7.18-11.86-11.11-18.36l-.37.44Z"></path>
    <path class="cls-1" d="M445.5,417.81c1.98-4.22,4.39-8.32,5.86-12.69,5.14-15.24,14.09-30.54,14.24-45.88,1.17-113.41.58-226.84.5-340.26,0-2.28-.41-4.55-.69-7.5H42.27c-.24,4.5-.69,9.06-.71,13.63-.27,106.75-.68,213.49-.52,320.24.02,14.14,3.01,28.28,4.62,42.42-2.71-7.03-7.68-14.03-7.77-21.09-.7-54.28-.5-108.57-.49-162.86.02-60.49.13-120.97.2-181.46,0-4.62,0-9.25,0-14.57h431.2c.35,3.28,1.07,6.88,1.08,10.48.14,112.88.38,225.77.16,338.65-.04,22.89-6.74,44.04-24.56,60.91Z"></path>
    <path class="cls-3" d="M90.89,441.84c7.36,2.74,14.66,5.63,22.09,8.18,30.79,10.57,61.71,20.82,92.37,31.72,6.55,2.33,12.21,6.88,18.27,10.41-32.28-10.81-64.75-21.15-96.75-32.67-12.55-4.52-24.02-11.68-35.98-17.64Z"></path>
    <path class="cls-4" d="M393.76,365.21c3.93,6.5,7.87,13,11.11,18.36-13.84,1.04-25.01,1.88-36.18,2.72-.32,1.21-.63,2.42-.95,3.62,6.71,3.34,13.28,6.97,20.16,9.97,19.86,8.65,21.01,15.46,6.44,29.54-11.14-10.09-22.27-20.18-35.16-31.87-4.74,18.19,13.32,41.68-17.95,47.81v-49.57c-10.43,5.68-19.74,10.75-32.03,17.44-1.6-4.89-4.18-12.76-7.34-22.39,14.28-1.86,25.2-3.29,39.99-5.22-11.13-9.73-20.63-18.05-31.85-27.86-.61,7.95-1.05,13.77-1.76,23.16-10.03-14.38-18.2-26.09-26.37-37.8-3.1,26.68-2.93,52.74,11.29,76.65,8.25,13.87,22.58,18.2,38.76,18.39-8.25,22.12-23.36,25.86-55.76,13.71-6.98,7.41-14.27,15.14-22.94,24.34-7.66-8.27-14.78-15.95-21.9-23.63-.13,1.32-.25,2.64-.38,3.96-13.49,0-27.27,1.53-40.35-.65-6.47-1.08-11.64-9.02-18.55-14.82,40.46-11.73,51.01-24.37,54.06-62.66.87-10.85,1.13-21.75-1.58-34.08-7.87,10.81-15.74,21.62-25.26,34.68-.84-8.26-1.4-13.67-2.21-21.7-11.09,9.63-20.79,18.05-29.91,25.96,12.29,4.27,24.28,7.4,34.67,13.11,1.69.93-3.73,13.28-5.04,17.64-11.87-7-21.34-12.59-31.17-18.39v50.02c-30.07-6.68-15.27-28.85-17.76-49.06-12.99,12.36-23.83,22.68-35.06,33.36-15.34-10.47-14.5-21.56,5.36-30.11,6.82-2.94,13.56-6.04,20.26-12.78-11.18-1.58-22.35-3.17-34.75-4.92v-11.49c-4.76,3.03-8.75,5.56-15.5,9.86v-226.12c-1.58-.04-3.17-.08-4.75-.12,0,4.81,0,9.62,0,14.44,0,65.76-.92,131.55.57,197.28.44,19.29-9.44,28-26.26,37.08-.33-6.73-.79-11.77-.79-16.81-.04-94.36-.39-188.72.33-283.07.12-15.59,4.93-31.15,7.96-48.99-2.21-3.3-6.85-10.23-10.15-15.15,17.88-2.07,33.58-3.04,48.9-5.86,27.4-5.04,41.46-1.11,53.77,15.55,5.59,7.56,5.24,13.38-1.14,20.16-13.84,14.7-30.68,15.68-51.99,1.84-8.99,10.08-8.98,21.93-1.82,31.19,8.68,11.23,19.54,22.02,31.87,29.46,21.26,12.83,46.04,16.4,69.73,16.76,11.87-23.69,23.29-46.48,35.91-71.66-22,1.01-38.56-3.15-48.06-20.91,13.81,3.25,27.28,6.43,42.32,9.97-8.62-15.88-12.15-16.87-30.59-8.39-1.2-2.21-2.79-5.36-4.37-9.29-1.42-3.54-2.97-7.46-3.82-12.69-.92-5.64-1.38-8.46,0-10.87,2.67-4.64,9.67-5.4,14.12-5.87,2.8-.3,4.89-.16,8.88.11,5.67.38,5.79.94,11.8,1.45,5.46.46,6.41.16,11.34.8,1.83.24,3.87.61,6.49,1.26,10.92,2.68,10.95,5.02,23.82,9.05,7.56,2.36,15.54,3.54,25.15,5.64-5.13,3.97-9.19,7.11-12.3,9.51,4.78,34,9.46,67.37,14.33,102.01,36.98-1.49,72.6-7.9,98.46-37.11,12.94-14.61,13.4-26.49,3.61-39.99-22.28,13.55-39.33,13.01-51.79-3.21-3.2-4.16-3.98-12.76-1.6-17.39,7.86-15.35,22.19-21.61,40.2-19.35,8.51,1.07,16.82,3.92,25.33,4.47,12.16.78,24.42.2,39.63.2-5.01,7.62-9.71,14.76-12.9,19.6,3.14,14.28,8.47,27.5,8.57,40.75.71,98.64.4,197.29.36,295.94,0,3.17-.51,6.33-.89,10.67-17.46-8.39-26.05-18.42-25.61-37.85,1.49-65.26.56-130.56.56-195.85,0-5.01,0-10.02,0-15.03-1.28,0-2.56-.01-3.83-.02v225.98c-10.43-5.76-18.28-10.09-26.12-14.45-.47-7.13-1.35-14.25-1.37-21.36-.12-51.92-.04-103.83-.1-155.75,0-4.89-.5-9.78-.77-14.66-1.43.03-2.85.05-4.28.08v181.14c-24.27-11.21-26.52-14.34-26.52-34.78,0-29.53,0-59.06,0-88.59,0-15.48,0-30.97,0-46.45-1.2,0-2.41,0-3.61.01v147.91c-17.18-9.41-28.9-17.84-27.03-37.38,2.03-21.26.46-42.83.46-64.26,0-13.46,0-26.91,0-40.37-1.57,0-3.14,0-4.71,0v117.81c-19.55-8.78-29.09-19.95-26.03-39.25,1.77-11.18.32-22.82.32-34.25,0-13.77,0-27.54,0-41.31-7.19,24.16-10.16,48.55-14.94,72.63-2.12,10.68.74,17.63,8.54,25.05,16.99,16.17,33.04,33.2,51.34,51.78h-18.52c7.55,9.46,14.66,16.95,20,25.42,6.94,11.02,14.29,10.6,24.75,4.43,6.78-4,15.17-5.6,22.83-8.27ZM149.42,185.08l-4.02.02c0,4.6,0,9.2,0,13.8,0,40.49,0,80.99,0,121.48,0,20.29-4.59,26.45-27.23,34.74v-181.97c-1.29.01-2.59.02-3.88.03v189.57c6.78,3.36,14.41,6.41,21.18,10.66,10.18,6.4,17.85,6.76,24.7-4.41,4.77-7.78,11.44-14.51,17.12-21.81.69-.89.47-2.41.77-4.24h-15.44c15.08-15.43,27.6-30.59,42.68-43,15.16-12.47,19.06-25.36,14.53-43.65-5.12-20.68-6.66-42.14-9.76-63.26-1.29.09-2.58.18-3.87.27,0,25.98-1.48,52.06.48,77.91,1.47,19.38-7.6,29.7-27.14,38.41v-119.43c-1.34.03-2.67.06-4.01.09,0,4.56,0,9.13,0,13.69,0,32.4.01,64.79,0,97.19,0,15.81-7.11,24.07-26.1,29.45v-145.57Z"></path>
    <path class="cls-5" d="M149.42,185.08v145.57c18.99-5.38,26.09-13.63,26.1-29.45.02-32.4,0-64.79,0-97.19,0-4.56,0-9.13,0-13.69,1.34-.03,2.67-.06,4.01-.09v119.43c19.53-8.72,28.61-19.04,27.14-38.41-1.96-25.85-.48-51.93-.48-77.91,1.29-.09,2.58-.18,3.87-.27,3.1,21.12,4.64,42.58,9.76,63.26,4.53,18.28.64,31.17-14.53,43.65-15.08,12.41-27.6,27.57-42.68,43h15.44c-.3,1.83-.08,3.35-.77,4.24-5.68,7.3-12.35,14.04-17.12,21.81-6.85,11.17-14.52,10.8-24.7,4.41-6.77-4.26-14.4-7.3-21.18-10.66v-189.57c1.29-.01,2.59-.02,3.88-.03v181.97c22.64-8.29,27.22-14.45,27.23-34.74,0-40.49,0-80.99,0-121.48,0-4.6,0-9.2,0-13.8l4.02-.02Z"></path>
    <path class="cls-5" d="M393.76,365.21c-7.67,2.67-16.05,4.27-22.83,8.27-10.46,6.17-17.82,6.59-24.75-4.43-5.33-8.47-12.45-15.96-20-25.42h18.52c-18.3-18.57-34.35-35.61-51.34-51.78-7.8-7.42-10.65-14.37-8.54-25.05,4.78-24.08,7.75-48.47,14.94-72.63,0,13.77,0,27.54,0,41.31,0,11.43,1.45,23.07-.32,34.25-3.06,19.3,6.48,30.47,26.03,39.25v-117.81c1.57,0,3.14,0,4.71,0,0,13.46,0,26.91,0,40.37,0,21.43,1.58,43-.46,64.26-1.87,19.54,9.85,27.97,27.03,37.38v-147.91c1.2,0,2.41,0,3.61-.01,0,15.48,0,30.97,0,46.45,0,29.53,0,59.06,0,88.59,0,20.44,2.25,23.57,26.52,34.78v-181.14c1.43-.03,2.85-.05,4.28-.08.27,4.89.77,9.78.77,14.66.06,51.92-.02,103.83.1,155.75.02,7.12.9,14.23,1.37,21.36-.01.02.36-.42.36-.42Z"></path>
  </g>
  <line class="cls-7" x1="177.28" y1="347.2" x2="197.05" y2="357.33"></line>
  <line class="cls-7" x1="310" y1="357.77" x2="326.18" y2="343.63"></line>
  <path class="cls-4" d="M229.7,18.38"></path>
  <path class="cls-6" d="M229.7,19.92c-.5,1.38-3.53,10.16,1.32,18.13,1.96,3.22,4.51,5.18,6.28,6.28,2.53,2.43,6.3,6.67,9.03,12.96,3.63,8.35,3.48,15.87,3.14,19.63-5.89-.11-11.79-.22-17.68-.33l-13.93-1.61c-3.69-.31-6.36-1.32-8.11-2.19-2.84-1.41-6.2-3.89-6.15-3.99,0,0,0,0,0,0,23.54-2.48,28.97.8,30.38-.43.91-.79.63-2.46.58-2.82-.23-1.92-1.51-3.21-2.18-3.86-4.24-4.15-10.19-9.21-10.8-9.73-.42.36-8.59,7.14-15.31,4.16-3.85-1.71-5.63-5.92-7.75-10.99-1.66-3.96-2.39-7.49-2.75-9.95h0c-.45-1.4-.95-3.55-.84-6.18.08-1.91.46-3.51.84-4.68.59-.84,1.58-2.01,3.09-3.04,2.37-1.6,4.72-1.95,5.9-2.04,2.87-.5,6.21-.88,9.92-.93,5.92-.08,11.02.69,15,1.61Z"></path>
  <path class="cls-3" d="M233.7,26.12l11.99,4c-1.47,4.26-2.93,8.53-4.4,12.79-.86-.31-4.98-1.89-7.2-6.4-2.45-4.97-.69-9.65-.4-10.39Z"></path>
  <polygon class="cls-4" points="238.05 35.98 236.54 27.81 242.14 29.56 238.05 35.98"></polygon>
  <path class="cls-4" d="M325.09,34.51"></path>
  <path class="cls-6" d="M321.72,59.78"></path>
</svg><style>@media (prefers-color-scheme: light) { :root { filter: none; } }
</style></svg>